<svg width="40" height="40" viewBox="0 0 40 40" fill="none" xmlns="http://www.w3.org/2000/svg">
<path d="M26.6664 37.9167H13.3331C5.63306 37.9167 4.19973 34.3333 3.83306 30.85L2.58306 17.5C2.39973 15.75 2.34973 13.1667 4.08306 11.2333C5.58306 9.56666 8.06639 8.76666 11.6664 8.76666H28.3331C31.9497 8.76666 34.4331 9.58333 35.9164 11.2333C37.6497 13.1667 37.5997 15.75 37.4164 17.5167L36.1664 30.8333C35.7997 34.3333 34.3664 37.9167 26.6664 37.9167ZM11.6664 11.25C8.84973 11.25 6.91639 11.8 5.93306 12.9C5.11639 13.8 4.84973 15.1833 5.06639 17.25L6.31639 30.6C6.59973 33.2333 7.3164 35.4167 13.3331 35.4167H26.6664C32.6664 35.4167 33.3997 33.2333 33.6831 30.5833L34.9331 17.2667C35.1497 15.1833 34.8831 13.8 34.0664 12.9C33.0831 11.8 31.1497 11.25 28.3331 11.25H11.6664Z" fill="#4474C8"/>
<path d="M26.6663 11.25C25.983 11.25 25.4163 10.6833 25.4163 10V8.66668C25.4163 5.70001 25.4163 4.58334 21.333 4.58334H18.6663C14.583 4.58334 14.583 5.70001 14.583 8.66668V10C14.583 10.6833 14.0163 11.25 13.333 11.25C12.6497 11.25 12.083 10.6833 12.083 10V8.66668C12.083 5.73334 12.083 2.08334 18.6663 2.08334H21.333C27.9163 2.08334 27.9163 5.73334 27.9163 8.66668V10C27.9163 10.6833 27.3497 11.25 26.6663 11.25Z" fill="#4474C8"/>
<path d="M20.0003 27.9167C15.417 27.9167 15.417 25.0833 15.417 23.3833V21.6667C15.417 19.3167 15.9837 18.75 18.3337 18.75H21.667C24.017 18.75 24.5837 19.3167 24.5837 21.6667V23.3333C24.5837 25.0667 24.5837 27.9167 20.0003 27.9167ZM17.917 21.25C17.917 21.3833 17.917 21.5333 17.917 21.6667V23.3833C17.917 25.1 17.917 25.4167 20.0003 25.4167C22.0837 25.4167 22.0837 25.15 22.0837 23.3667V21.6667C22.0837 21.5333 22.0837 21.3833 22.0837 21.25C21.9503 21.25 21.8003 21.25 21.667 21.25H18.3337C18.2003 21.25 18.0503 21.25 17.917 21.25Z" fill="#4474C8"/>
<path d="M23.3335 24.6167C22.7168 24.6167 22.1668 24.15 22.1002 23.5167C22.0168 22.8333 22.5002 22.2 23.1835 22.1167C27.5835 21.5667 31.8002 19.9 35.3502 17.3167C35.9002 16.9 36.6835 17.0333 37.1002 17.6C37.5002 18.15 37.3835 18.9333 36.8168 19.35C32.9168 22.1833 28.3168 24 23.4835 24.6167C23.4335 24.6167 23.3835 24.6167 23.3335 24.6167Z" fill="#4474C8"/>
<path d="M16.6669 24.6333C16.6169 24.6333 16.5669 24.6333 16.5169 24.6333C11.9502 24.1167 7.50023 22.45 3.65023 19.8167C3.08356 19.4333 2.93356 18.65 3.31689 18.0833C3.70023 17.5167 4.48356 17.3667 5.05023 17.75C8.56689 20.15 12.6169 21.6667 16.7836 22.15C17.4669 22.2333 17.9669 22.85 17.8836 23.5333C17.8336 24.1667 17.3002 24.6333 16.6669 24.6333Z" fill="#4474C8"/>
</svg>
