<svg width="40" height="40" viewBox="0 0 40 40" fill="none" xmlns="http://www.w3.org/2000/svg">
<path d="M24.9997 37.9167H14.9997C5.94967 37.9167 2.08301 34.05 2.08301 25V15C2.08301 5.95001 5.94967 2.08334 14.9997 2.08334H24.9997C34.0497 2.08334 37.9163 5.95001 37.9163 15V25C37.9163 34.05 34.0497 37.9167 24.9997 37.9167ZM14.9997 4.58334C7.31634 4.58334 4.58301 7.31668 4.58301 15V25C4.58301 32.6833 7.31634 35.4167 14.9997 35.4167H24.9997C32.683 35.4167 35.4163 32.6833 35.4163 25V15C35.4163 7.31668 32.683 4.58334 24.9997 4.58334H14.9997Z" fill="#4474C8"/>
<path d="M25.8333 32.0833C23.3 32.0833 21.25 30.0333 21.25 27.5V12.5C21.25 9.96666 23.3 7.91666 25.8333 7.91666C28.3667 7.91666 30.4167 9.96666 30.4167 12.5V27.5C30.4167 30.0333 28.3667 32.0833 25.8333 32.0833ZM25.8333 10.4167C24.6833 10.4167 23.75 11.35 23.75 12.5V27.5C23.75 28.65 24.6833 29.5833 25.8333 29.5833C26.9833 29.5833 27.9167 28.65 27.9167 27.5V12.5C27.9167 11.35 26.9833 10.4167 25.8333 10.4167Z" fill="#4474C8"/>
<path d="M14.1663 32.0833C11.633 32.0833 9.58301 30.0333 9.58301 27.5V21.6667C9.58301 19.1333 11.633 17.0833 14.1663 17.0833C16.6997 17.0833 18.7497 19.1333 18.7497 21.6667V27.5C18.7497 30.0333 16.6997 32.0833 14.1663 32.0833ZM14.1663 19.5833C13.0163 19.5833 12.083 20.5167 12.083 21.6667V27.5C12.083 28.65 13.0163 29.5833 14.1663 29.5833C15.3163 29.5833 16.2497 28.65 16.2497 27.5V21.6667C16.2497 20.5167 15.3163 19.5833 14.1663 19.5833Z" fill="#4474C8"/>
</svg>
