<svg width="40" height="40" viewBox="0 0 40 40" fill="none" xmlns="http://www.w3.org/2000/svg">
<path d="M27.1336 36.8333H20.8003C19.8669 36.8333 17.8336 36.55 16.7503 35.4667L11.7003 31.5667L13.2336 29.5833L18.4003 33.5833C18.8169 33.9833 19.8669 34.3167 20.8003 34.3167H27.1336C28.6336 34.3167 30.2503 33.1167 30.5836 31.7667L34.6169 19.5167C34.8836 18.7833 34.8336 18.1167 34.4836 17.6333C34.1169 17.1167 33.4503 16.8167 32.6336 16.8167H25.9669C25.1003 16.8167 24.3003 16.45 23.7503 15.8167C23.1836 15.1667 22.9336 14.3 23.0669 13.4L23.9003 8.05C24.1003 7.11667 23.4669 6.06667 22.5669 5.76667C21.7503 5.46667 20.7003 5.9 20.3336 6.43334L13.5003 16.6L11.4336 15.2167L18.2669 5.05C19.3169 3.48334 21.6169 2.73334 23.4169 3.41667C25.5003 4.1 26.8336 6.4 26.3669 8.53334L25.5503 13.7833C25.5336 13.9 25.5336 14.0667 25.6503 14.2C25.7336 14.2833 25.8503 14.3333 25.9836 14.3333H32.6503C34.2836 14.3333 35.7003 15.0167 36.5336 16.2C37.3503 17.35 37.5169 18.8667 36.9836 20.3333L33.0003 32.4667C32.3836 34.8833 29.8169 36.8333 27.1336 36.8333Z" fill="#4474C8"/>
<path d="M8.9668 35H7.30013C4.2168 35 2.7168 33.55 2.7168 30.5833V14.25C2.7168 11.2833 4.2168 9.83334 7.30013 9.83334H8.9668C12.0501 9.83334 13.5501 11.2833 13.5501 14.25V30.5833C13.5501 33.55 12.0501 35 8.9668 35ZM7.30013 12.3333C5.48346 12.3333 5.2168 12.7667 5.2168 14.25V30.5833C5.2168 32.0667 5.48346 32.5 7.30013 32.5H8.9668C10.7835 32.5 11.0501 32.0667 11.0501 30.5833V14.25C11.0501 12.7667 10.7835 12.3333 8.9668 12.3333H7.30013Z" fill="#4474C8"/>
</svg>
