<svg width="32" height="32" viewBox="0 0 32 32" fill="none" xmlns="http://www.w3.org/2000/svg">
<path d="M10.787 15.5067H4.53366C4.64033 9.28 5.86699 8.25334 9.69366 5.98667C10.1337 5.72 10.2803 5.16 10.0137 4.70667C9.76033 4.26667 9.18699 4.12 8.74699 4.38667C4.24033 7.05334 2.66699 8.68 2.66699 16.4267V23.6133C2.66699 25.8933 4.52033 27.7333 6.78699 27.7333H10.787C13.1337 27.7333 14.907 25.96 14.907 23.6133V19.6133C14.907 17.28 13.1337 15.5067 10.787 15.5067Z" fill="#BDC7F4"/>
<path d="M25.2134 15.5067H18.9601C19.0667 9.28 20.2934 8.25333 24.1201 5.98667C24.5601 5.72 24.7067 5.16 24.4401 4.70667C24.1734 4.26667 23.6134 4.12 23.1601 4.38667C18.6534 7.05334 17.0801 8.68 17.0801 16.44V23.6267C17.0801 25.9067 18.9334 27.7467 21.2001 27.7467H25.2001C27.5467 27.7467 29.3201 25.9733 29.3201 23.6267V19.6267C29.3334 17.28 27.5601 15.5067 25.2134 15.5067Z" fill="#BDC7F4"/>
</svg>
